<svg width="43" height="30" viewBox="0 0 43 30" fill="none" xmlns="http://www.w3.org/2000/svg">
<rect x="1.29517" y="1" width="40.8909" height="28" rx="3.5" fill="white" stroke="#F3F3F3" stroke-width="0.747724" stroke-linejoin="round"/>
<path fill-rule="evenodd" clip-rule="evenodd" d="M13.5403 11.3538C13.2374 11.7166 12.7529 12.0027 12.2683 11.9618C12.2077 11.4713 12.445 10.9502 12.7226 10.6283C13.0254 10.2554 13.5554 9.98966 13.9845 9.96924C14.0349 10.4801 13.8381 10.9808 13.5403 11.3538ZM13.9795 12.0589C13.5526 12.034 13.1631 12.1888 12.8484 12.3139C12.646 12.3944 12.4745 12.4625 12.3441 12.4625C12.1977 12.4625 12.0191 12.3907 11.8187 12.3101C11.556 12.2045 11.2557 12.0837 10.9408 12.0895C10.219 12.0997 9.54768 12.5136 9.1792 13.1727C8.42205 14.4909 8.98234 16.4426 9.71425 17.5155C10.0726 18.0468 10.5017 18.6293 11.067 18.6089C11.3157 18.5994 11.4946 18.5225 11.6798 18.443C11.893 18.3514 12.1144 18.2563 12.4601 18.2563C12.7939 18.2563 13.0057 18.349 13.209 18.4379C13.4022 18.5224 13.5878 18.6036 13.8634 18.5987C14.4489 18.5884 14.8174 18.0673 15.1758 17.5359C15.5625 16.9657 15.7325 16.4091 15.7583 16.3246L15.76 16.319L15.7613 16.3148C15.7607 16.3142 15.7559 16.312 15.7475 16.3081C15.6182 16.2482 14.63 15.7903 14.6205 14.5624C14.611 13.5317 15.4043 13.0096 15.5292 12.9274C15.5368 12.9224 15.5419 12.919 15.5442 12.9172C15.0395 12.1611 14.2521 12.0793 13.9795 12.0589ZM18.0327 18.5424V10.5772H20.9855C22.5099 10.5772 23.575 11.6399 23.575 13.1931C23.575 14.7463 22.4897 15.8192 20.9451 15.8192H19.2542V18.5424H18.0327ZM19.2542 11.6195H20.6625C21.7225 11.6195 22.3282 12.1917 22.3282 13.1983C22.3282 14.2048 21.7225 14.7821 20.6575 14.7821H19.2542V11.6195ZM27.608 17.587C27.285 18.2103 26.5733 18.6038 25.8059 18.6038C24.6703 18.6038 23.8779 17.9191 23.8779 16.8871C23.8779 15.8652 24.6451 15.2777 26.0635 15.1908L27.5879 15.0989V14.6595C27.5879 14.0106 27.169 13.6581 26.4219 13.6581C25.8059 13.6581 25.3568 13.9799 25.266 14.4704H24.1655C24.2009 13.4384 25.16 12.6873 26.4573 12.6873C27.8554 12.6873 28.7639 13.4282 28.7639 14.5777V18.5425H27.6332V17.587H27.608ZM26.1341 17.6586C25.483 17.6586 25.069 17.3418 25.069 16.8564C25.069 16.3557 25.4679 16.0645 26.2301 16.0185L27.5879 15.9316V16.3813C27.5879 17.1272 26.9619 17.6586 26.1341 17.6586ZM32.5143 18.8541C32.0248 20.2489 31.4645 20.7087 30.2732 20.7087C30.1824 20.7087 29.8795 20.6985 29.8087 20.6781V19.7227C29.8844 19.7329 30.0713 19.7431 30.1671 19.7431C30.7073 19.7431 31.0102 19.5132 31.1968 18.9154L31.3079 18.5629L29.2383 12.764H30.5155L31.954 17.4695H31.9792L33.4178 12.764H34.6595L32.5143 18.8541Z" fill="black"/>
</svg>
