<svg width="16" height="18" viewBox="0 0 16 18" fill="none" xmlns="http://www.w3.org/2000/svg">
<path fill-rule="evenodd" clip-rule="evenodd" d="M14.2857 2.25H12.5714V0.421875C12.5714 0.189844 12.3786 0 12.1429 0H11.8571C11.6214 0 11.4286 0.189844 11.4286 0.421875V2.25H4.57143V0.421875C4.57143 0.189844 4.37857 0 4.14286 0H3.85714C3.62143 0 3.42857 0.189844 3.42857 0.421875V2.25H1.71429C0.767857 2.25 0 3.00586 0 3.9375V16.3125C0 17.2441 0.767857 18 1.71429 18H14.2857C15.2321 18 16 17.2441 16 16.3125V3.9375C16 3.00586 15.2321 2.25 14.2857 2.25ZM1.71429 3.375H14.2857C14.6 3.375 14.8571 3.62812 14.8571 3.9375V5.625H1.14286V3.9375C1.14286 3.62812 1.4 3.375 1.71429 3.375ZM1.71429 16.875H14.2857C14.6 16.875 14.8571 16.6219 14.8571 16.3125V6.75H1.14286V16.3125C1.14286 16.6219 1.4 16.875 1.71429 16.875ZM5.28571 11.25H3.85714C3.62143 11.25 3.42857 11.0602 3.42857 10.8281V9.42188C3.42857 9.18984 3.62143 9 3.85714 9H5.28571C5.52143 9 5.71429 9.18984 5.71429 9.42188V10.8281C5.71429 11.0602 5.52143 11.25 5.28571 11.25ZM7.28571 11.25H8.71429C8.95 11.25 9.14286 11.0602 9.14286 10.8281V9.42188C9.14286 9.18984 8.95 9 8.71429 9H7.28571C7.05 9 6.85714 9.18984 6.85714 9.42188V10.8281C6.85714 11.0602 7.05 11.25 7.28571 11.25ZM10.7143 11.25C10.4786 11.25 10.2857 11.0602 10.2857 10.8281V9.42188C10.2857 9.18984 10.4786 9 10.7143 9H12.1429C12.3786 9 12.5714 9.18984 12.5714 9.42188V10.8281C12.5714 11.0602 12.3786 11.25 12.1429 11.25H10.7143ZM7.28571 14.625H8.71429C8.95 14.625 9.14286 14.4352 9.14286 14.2031V12.7969C9.14286 12.5648 8.95 12.375 8.71429 12.375H7.28571C7.05 12.375 6.85714 12.5648 6.85714 12.7969V14.2031C6.85714 14.4352 7.05 14.625 7.28571 14.625ZM5.28571 14.625H3.85714C3.62143 14.625 3.42857 14.4352 3.42857 14.2031V12.7969C3.42857 12.5648 3.62143 12.375 3.85714 12.375H5.28571C5.52143 12.375 5.71429 12.5648 5.71429 12.7969V14.2031C5.71429 14.4352 5.52143 14.625 5.28571 14.625ZM10.2857 14.2031C10.2857 14.4352 10.4786 14.625 10.7143 14.625H12.1429C12.3786 14.625 12.5714 14.4352 12.5714 14.2031V12.7969C12.5714 12.5648 12.3786 12.375 12.1429 12.375H10.7143C10.4786 12.375 10.2857 12.5648 10.2857 12.7969V14.2031Z" fill="#000616"/>
</svg>
