<svg width="42" height="30" viewBox="0 0 42 30" fill="none" xmlns="http://www.w3.org/2000/svg">
<rect x="0.425537" y="1" width="40.891" height="28" rx="3.5" fill="white" stroke="#F3F3F3" stroke-width="0.747724" stroke-linejoin="round"/>
<path fill-rule="evenodd" clip-rule="evenodd" d="M20.0938 17.9597V14.7176V14.717H21.8456C22.5679 14.7174 23.175 14.4902 23.6667 14.0353C24.1637 13.6037 24.4416 12.983 24.4274 12.336C24.4373 11.6927 24.1599 11.0766 23.6667 10.6463C23.1793 10.189 22.5237 9.93943 21.8456 9.95318H19.0334V17.9597H20.0938ZM20.0938 13.7338V10.9388V10.9382H21.872C22.2685 10.9274 22.6503 11.0821 22.9213 11.363C23.1936 11.6199 23.3474 11.9729 23.3474 12.3414C23.3474 12.71 23.1936 13.0629 22.9213 13.3198C22.6471 13.5948 22.2663 13.7451 21.872 13.7338H20.0938Z" fill="#5F6368"/>
<path fill-rule="evenodd" clip-rule="evenodd" d="M28.7269 12.9122C28.2734 12.5059 27.6547 12.3027 26.8709 12.3027C25.8643 12.3027 25.104 12.6605 24.5901 13.376L25.524 13.9465C25.8692 13.4618 26.338 13.2195 26.9302 13.2195C27.308 13.2152 27.6732 13.3491 27.9537 13.5945C28.2333 13.8187 28.3942 14.153 28.3916 14.5048V14.7399C27.9843 14.5163 27.4657 14.4045 26.8362 14.4045C26.0983 14.4054 25.5087 14.5732 25.0671 14.9079C24.6253 15.2427 24.4046 15.6935 24.4046 16.2603C24.3949 16.7765 24.6257 17.2693 25.0328 17.6019C25.4518 17.9596 25.9721 18.1385 26.5943 18.1385C27.3233 18.1385 27.9073 17.8255 28.3463 17.1994H28.3923V17.9596H29.4067V14.5834C29.4071 13.8756 29.1806 13.3185 28.7269 12.9122ZM25.8507 16.9535C25.6287 16.7982 25.4977 16.5483 25.499 16.2827C25.499 15.9844 25.6433 15.7359 25.9337 15.5314C26.2213 15.33 26.5805 15.2292 27.0113 15.2292C27.6027 15.2292 28.0637 15.357 28.3942 15.6126C28.3942 16.0444 28.2186 16.4207 27.8674 16.7414C27.5511 17.0483 27.1222 17.2211 26.6748 17.2218C26.3764 17.2273 26.0852 17.1324 25.8507 16.9535Z" fill="#5F6368"/>
<path fill-rule="evenodd" clip-rule="evenodd" d="M35.2287 12.4817L31.688 20.3745H30.5934L31.9072 17.6128L29.5792 12.4817H30.7317L32.4144 16.4169H32.4375L34.0741 12.4817H35.2287Z" fill="#5F6368"/>
<path fill-rule="evenodd" clip-rule="evenodd" d="M15.8089 14.0188C15.8093 13.7053 15.7819 13.3924 15.7272 13.0835H11.2552V14.855H13.8166C13.7107 15.4267 13.3685 15.9317 12.8695 16.2528V17.4027H14.3981C15.2932 16.6022 15.8089 15.4185 15.8089 14.0188Z" fill="#4285F4"/>
<path fill-rule="evenodd" clip-rule="evenodd" d="M11.2553 18.5135C12.5349 18.5135 13.6124 18.1059 14.3981 17.4032L12.8695 16.2533C12.444 16.5331 11.8961 16.6928 11.2553 16.6928C10.0184 16.6928 8.96857 15.884 8.59316 14.7942H7.01843V15.9792C7.82335 17.5329 9.46267 18.5134 11.2553 18.5135Z" fill="#34A853"/>
<path fill-rule="evenodd" clip-rule="evenodd" d="M8.59322 14.7943C8.39474 14.2232 8.39474 13.6048 8.59322 13.0337V11.8486H7.01849C6.34524 13.1481 6.34524 14.6799 7.01849 15.9794L8.59322 14.7943Z" fill="#FBBC04"/>
<path fill-rule="evenodd" clip-rule="evenodd" d="M11.2552 11.1349C11.9315 11.1242 12.5849 11.3721 13.0743 11.8249L14.4278 10.5121C13.5695 9.7302 12.4326 9.30093 11.2552 9.31427C9.46267 9.31433 7.82335 10.2949 7.01843 11.8485L8.59316 13.0336C8.96856 11.9437 10.0184 11.1349 11.2552 11.1349Z" fill="#EA4335"/>
</svg>
