<svg width="42" height="30" viewBox="0 0 42 30" fill="none" xmlns="http://www.w3.org/2000/svg">
<rect x="0.686157" y="1" width="40.891" height="28" rx="3.5" fill="white" stroke="#F3F3F3" stroke-width="0.747724" stroke-linejoin="round"/>
<path d="M24.9436 21.4513H17.5128V8.18115H24.9436V21.4513Z" fill="#FF5F00"/>
<path d="M17.9889 14.8152C17.9889 12.1233 19.2573 9.72546 21.2325 8.18018C19.7881 7.05018 17.9651 6.37573 15.984 6.37573C11.2938 6.37573 7.49182 10.1542 7.49182 14.8152C7.49182 19.4763 11.2938 23.2547 15.984 23.2547C17.9651 23.2547 19.7881 22.5803 21.2325 21.4503C19.2573 19.905 17.9889 17.5071 17.9889 14.8152Z" fill="#EB001B"/>
<path d="M34.9657 14.8152C34.9657 19.4763 31.1638 23.2547 26.4735 23.2547C24.4924 23.2547 22.6694 22.5803 21.2245 21.4503C23.2003 19.905 24.4686 17.5071 24.4686 14.8152C24.4686 12.1233 23.2003 9.72546 21.2245 8.18018C22.6694 7.05018 24.4924 6.37573 26.4735 6.37573C31.1638 6.37573 34.9657 10.1542 34.9657 14.8152Z" fill="#F79E1B"/>
</svg>
