<svg width="19" height="18" viewBox="0 0 19 18" fill="none" xmlns="http://www.w3.org/2000/svg">
<path id="Shape" opacity="0.9" fill-rule="evenodd" clip-rule="evenodd" d="M9.78734 0C4.82879 0 0.811279 4.02823 0.811279 9C0.811279 13.9718 4.82879 18 9.78734 18C14.7459 18 18.7634 13.9718 18.7634 9C18.7634 4.02823 14.7459 0 9.78734 0ZM14.4201 15.3C13.1208 16.2617 11.521 16.8387 9.78734 16.8387C8.05366 16.8387 6.45389 16.2617 5.15454 15.3V14.8065C5.15454 13.5254 6.1933 12.4839 7.47094 12.4839C7.61374 12.4839 7.78078 12.5361 7.99611 12.6035C8.38657 12.7257 8.93584 12.8976 9.78734 12.8976C10.6402 12.8976 11.1871 12.7261 11.5766 12.6039C11.792 12.5364 11.9594 12.4839 12.1037 12.4839C13.3814 12.4839 14.4201 13.5254 14.4201 14.8065V15.3ZM12.1037 11.3226C13.8519 11.3226 15.2816 12.6181 15.5277 14.302C16.8126 12.9048 17.6052 11.0468 17.6052 9C17.6052 4.67782 14.098 1.16129 9.78734 1.16129C5.47666 1.16129 1.96948 4.67782 1.96948 9C1.96948 11.0468 2.76213 12.9048 4.047 14.302C4.29312 12.6181 5.72278 11.3226 7.47094 11.3226C7.79836 11.3226 8.05041 11.4024 8.33312 11.4919C8.69419 11.6062 9.10528 11.7363 9.78734 11.7363C10.4701 11.7363 10.8825 11.6059 11.2442 11.4915C11.5267 11.4021 11.7784 11.3226 12.1037 11.3226ZM9.78734 4.06452C8.02832 4.06452 6.60229 5.49435 6.60229 7.25806C6.60229 9.02177 8.02832 10.4516 9.78734 10.4516C11.5464 10.4516 12.9724 9.02177 12.9724 7.25806C12.9724 5.49435 11.5464 4.06452 9.78734 4.06452ZM7.76049 7.25806C7.76049 8.37944 8.66895 9.29032 9.78734 9.29032C10.9057 9.29032 11.8142 8.37944 11.8142 7.25806C11.8142 6.13669 10.9057 5.22581 9.78734 5.22581C8.66895 5.22581 7.76049 6.13669 7.76049 7.25806Z" fill="#000616"/>
</svg>
