<svg width="19" height="18" viewBox="0 0 19 18" fill="none" xmlns="http://www.w3.org/2000/svg">
<path opacity="0.9" fill-rule="evenodd" clip-rule="evenodd" d="M9.78759 0C4.82904 0 0.811523 4.02823 0.811523 9C0.811523 13.9718 4.82904 18 9.78759 18C14.7461 18 18.7637 13.9718 18.7637 9C18.7637 4.02823 14.7461 0 9.78759 0ZM14.4204 15.3C13.121 16.2617 11.5213 16.8387 9.78759 16.8387C8.0539 16.8387 6.45414 16.2617 5.15478 15.3V14.8065C5.15478 13.5254 6.19354 12.4839 7.47118 12.4839C7.61398 12.4839 7.78102 12.5361 7.99635 12.6035C8.38682 12.7257 8.93608 12.8976 9.78759 12.8976C10.6405 12.8976 11.1873 12.7261 11.5768 12.6039C11.7923 12.5364 11.9596 12.4839 12.104 12.4839C13.3816 12.4839 14.4204 13.5254 14.4204 14.8065V15.3ZM12.104 11.3226C13.8522 11.3226 15.2818 12.6181 15.5279 14.302C16.8128 12.9048 17.6054 11.0468 17.6054 9C17.6054 4.67782 14.0983 1.16129 9.78759 1.16129C5.4769 1.16129 1.96972 4.67782 1.96972 9C1.96972 11.0468 2.76237 12.9048 4.04725 14.302C4.29337 12.6181 5.72302 11.3226 7.47118 11.3226C7.79861 11.3226 8.05065 11.4024 8.33337 11.4919C8.69443 11.6062 9.10553 11.7363 9.78759 11.7363C10.4704 11.7363 10.8828 11.6059 11.2445 11.4915C11.527 11.4021 11.7786 11.3226 12.104 11.3226ZM9.78759 4.06452C8.02857 4.06452 6.60253 5.49435 6.60253 7.25806C6.60253 9.02177 8.02857 10.4516 9.78759 10.4516C11.5466 10.4516 12.9726 9.02177 12.9726 7.25806C12.9726 5.49435 11.5466 4.06452 9.78759 4.06452ZM7.76073 7.25806C7.76073 8.37944 8.6692 9.29032 9.78759 9.29032C10.906 9.29032 11.8144 8.37944 11.8144 7.25806C11.8144 6.13669 10.906 5.22581 9.78759 5.22581C8.6692 5.22581 7.76073 6.13669 7.76073 7.25806Z" fill="white"/>
</svg>
