<svg width="19" height="16" viewBox="0 0 19 16" fill="none" xmlns="http://www.w3.org/2000/svg">
<path fill-rule="evenodd" clip-rule="evenodd" d="M5.61591 0.857143V3.71429C5.61591 4.18768 5.23916 4.57143 4.7744 4.57143H1.22139C0.756632 4.57143 0.379883 4.18768 0.379883 3.71429V0.857143C0.379883 0.38375 0.756632 0 1.22139 0H4.7744C5.23916 0 5.61591 0.38375 5.61591 0.857143ZM11.974 9.42857V6.57143C11.974 6.09804 11.5972 5.71429 11.1325 5.71429H7.57942C7.11466 5.71429 6.73791 6.09804 6.73791 6.57143V9.42857C6.73791 9.90196 7.11466 10.2857 7.57942 10.2857H11.1324C11.5972 10.2857 11.974 9.90196 11.974 9.42857ZM13.096 3.71429V0.857143C13.096 0.38375 13.4727 0 13.9375 0H17.4905C17.9553 0 18.332 0.38375 18.332 0.857143V3.71429C18.332 4.18768 17.9553 4.57143 17.4905 4.57143H13.9375C13.4727 4.57143 13.096 4.18768 13.096 3.71429ZM11.974 3.71429V0.857143C11.974 0.38375 11.5972 0 11.1325 0H7.57942C7.11466 0 6.73791 0.38375 6.73791 0.857143V3.71429C6.73791 4.18768 7.11466 4.57143 7.57942 4.57143H11.1324C11.5972 4.57143 11.974 4.18768 11.974 3.71429ZM1.22139 5.71429H4.7744C5.23916 5.71429 5.61591 6.09804 5.61591 6.57143V9.42857C5.61591 9.90196 5.23916 10.2857 4.7744 10.2857H1.22139C0.756632 10.2857 0.379883 9.90196 0.379883 9.42857V6.57143C0.379883 6.09804 0.756632 5.71429 1.22139 5.71429ZM0.379883 12.2857V15.1429C0.379883 15.6163 0.756632 16 1.22139 16H4.7744C5.23916 16 5.61591 15.6163 5.61591 15.1429V12.2857C5.61591 11.8123 5.23916 11.4286 4.7744 11.4286H1.22139C0.756632 11.4286 0.379883 11.8123 0.379883 12.2857ZM17.4905 10.2857H13.9375C13.4727 10.2857 13.096 9.90196 13.096 9.42857V6.57143C13.096 6.09804 13.4727 5.71429 13.9375 5.71429H17.4905C17.9553 5.71429 18.332 6.09804 18.332 6.57143V9.42857C18.332 9.90196 17.9553 10.2857 17.4905 10.2857ZM13.9375 16H17.4905C17.9553 16 18.332 15.6163 18.332 15.1429V12.2857C18.332 11.8123 17.9553 11.4286 17.4905 11.4286H13.9375C13.4727 11.4286 13.096 11.8123 13.096 12.2857V15.1429C13.096 15.6163 13.4727 16 13.9375 16ZM6.73791 15.1429V12.2857C6.73791 11.8123 7.11466 11.4286 7.57942 11.4286H11.1324C11.5972 11.4286 11.9739 11.8123 11.9739 12.2857V15.1429C11.9739 15.6163 11.5972 16 11.1324 16H7.57942C7.11466 16 6.73791 15.6163 6.73791 15.1429Z" fill="white"/>
</svg>
