<svg width="19" height="16" viewBox="0 0 19 16" fill="none" xmlns="http://www.w3.org/2000/svg">
<path fill-rule="evenodd" clip-rule="evenodd" d="M5.6164 0.857143V3.71429C5.6164 4.18768 5.23965 4.57143 4.77489 4.57143H1.22188C0.75712 4.57143 0.380371 4.18768 0.380371 3.71429V0.857143C0.380371 0.38375 0.75712 0 1.22188 0H4.77489C5.23965 0 5.6164 0.38375 5.6164 0.857143ZM11.9745 9.42857V6.57143C11.9745 6.09804 11.5977 5.71429 11.133 5.71429H7.5799C7.11515 5.71429 6.7384 6.09804 6.7384 6.57143V9.42857C6.7384 9.90196 7.11515 10.2857 7.5799 10.2857H11.1329C11.5977 10.2857 11.9745 9.90196 11.9745 9.42857ZM13.0965 3.71429V0.857143C13.0965 0.38375 13.4732 0 13.938 0H17.491C17.9557 0 18.3325 0.38375 18.3325 0.857143V3.71429C18.3325 4.18768 17.9557 4.57143 17.491 4.57143H13.938C13.4732 4.57143 13.0965 4.18768 13.0965 3.71429ZM11.9745 3.71429V0.857143C11.9745 0.38375 11.5977 0 11.133 0H7.5799C7.11515 0 6.7384 0.38375 6.7384 0.857143V3.71429C6.7384 4.18768 7.11515 4.57143 7.5799 4.57143H11.1329C11.5977 4.57143 11.9745 4.18768 11.9745 3.71429ZM1.22188 5.71429H4.77489C5.23965 5.71429 5.6164 6.09804 5.6164 6.57143V9.42857C5.6164 9.90196 5.23965 10.2857 4.77489 10.2857H1.22188C0.75712 10.2857 0.380371 9.90196 0.380371 9.42857V6.57143C0.380371 6.09804 0.75712 5.71429 1.22188 5.71429ZM0.380371 12.2857V15.1429C0.380371 15.6163 0.75712 16 1.22188 16H4.77489C5.23965 16 5.6164 15.6163 5.6164 15.1429V12.2857C5.6164 11.8123 5.23965 11.4286 4.77489 11.4286H1.22188C0.75712 11.4286 0.380371 11.8123 0.380371 12.2857ZM17.491 10.2857H13.938C13.4732 10.2857 13.0965 9.90196 13.0965 9.42857V6.57143C13.0965 6.09804 13.4732 5.71429 13.938 5.71429H17.491C17.9557 5.71429 18.3325 6.09804 18.3325 6.57143V9.42857C18.3325 9.90196 17.9557 10.2857 17.491 10.2857ZM13.938 16H17.491C17.9557 16 18.3325 15.6163 18.3325 15.1429V12.2857C18.3325 11.8123 17.9557 11.4286 17.491 11.4286H13.938C13.4732 11.4286 13.0965 11.8123 13.0965 12.2857V15.1429C13.0965 15.6163 13.4732 16 13.938 16ZM6.7384 15.1429V12.2857C6.7384 11.8123 7.11515 11.4286 7.5799 11.4286H11.1329C11.5977 11.4286 11.9744 11.8123 11.9744 12.2857V15.1429C11.9744 15.6163 11.5977 16 11.1329 16H7.5799C7.11515 16 6.7384 15.6163 6.7384 15.1429Z" fill="black"/>
</svg>
