<svg width="18" height="13" viewBox="0 0 18 13" fill="none" xmlns="http://www.w3.org/2000/svg">
<path d="M13.25 3.00062H4.75C4.33578 3.00062 4 3.33644 4 3.75071V8.25128C4 8.66555 4.33578 9.00137 4.75 9.00137H13.25C13.6642 9.00137 14 8.66555 14 8.25128V3.75071C14 3.33644 13.6642 3.00062 13.25 3.00062ZM13 8.00124H5V4.00074H13V8.00124ZM17 5.00087H18V1.50043C18 0.671891 17.3284 0.000244141 16.5 0.000244141H1.5C0.671562 0.000244141 0 0.671891 0 1.50043V5.00087H1C1.55228 5.00087 2 5.44864 2 6.00099C2 6.55334 1.55228 7.00112 1 7.00112H0V10.5016C0 11.3301 0.671562 12.0017 1.5 12.0017H16.5C17.3284 12.0017 18 11.3301 18 10.5016V7.00112H17C16.4477 7.00112 16 6.55334 16 6.00099C16 5.44864 16.4477 5.00087 17 5.00087ZM17 8.00124V10.5016C17 10.7773 16.7757 11.0016 16.5 11.0016H1.5C1.22428 11.0016 1 10.7773 1 10.5016V8.00124C2.10281 8.00124 3 7.10394 3 6.00099C3 4.89804 2.10281 4.00074 1 4.00074V1.50043C1 1.22468 1.22428 1.00037 1.5 1.00037H16.5C16.7757 1.00037 17 1.22468 17 1.50043V4.00074C15.8972 4.00074 15 4.89804 15 6.00099C15 7.10394 15.8972 8.00124 17 8.00124Z" fill="white"/>
</svg>
