<svg width="43" height="30" viewBox="0 0 43 30" fill="none" xmlns="http://www.w3.org/2000/svg">
<rect x="0.816467" y="1" width="40.891" height="28" rx="3.5" fill="white" stroke="#F3F3F3" stroke-width="0.747724" stroke-linejoin="round"/>
<path d="M18.93 20.3422H16.158L17.8918 10.28H20.6638L18.93 20.3422Z" fill="#15195A"/>
<path d="M28.979 10.526C28.4323 10.3224 27.5651 10.0977 26.4927 10.0977C23.7552 10.0977 21.8274 11.4678 21.8156 13.4266C21.7929 14.8718 23.1958 15.6745 24.2451 16.1564C25.3175 16.6488 25.6821 16.9702 25.6821 17.4091C25.6711 18.0832 24.8155 18.3939 24.0175 18.3939C22.9106 18.3939 22.3177 18.2337 21.4165 17.8587L21.0514 17.6979L20.6635 19.9567C21.3137 20.2347 22.5114 20.4814 23.7552 20.4922C26.6637 20.4922 28.5575 19.1433 28.5799 17.0558C28.5909 15.9104 27.8501 15.0327 26.253 14.3155C25.2835 13.8551 24.6897 13.5447 24.6897 13.0736C24.701 12.6453 25.192 12.2067 26.2864 12.2067C27.1875 12.1852 27.8496 12.3885 28.3512 12.592L28.6021 12.6988L28.979 10.526Z" fill="#15195A"/>
<path fill-rule="evenodd" clip-rule="evenodd" d="M33.941 10.28H36.0852L38.3217 20.3421H35.7549C35.7549 20.3421 35.5037 19.186 35.4241 18.8327H31.8649C31.762 19.1002 31.2833 20.3421 31.2833 20.3421H28.3745L32.4921 11.1149C32.7775 10.4619 33.2797 10.28 33.941 10.28ZM33.7701 13.9623C33.7701 13.9623 32.8916 16.1995 32.6634 16.7776H34.9676C34.8535 16.2745 34.3286 13.8659 34.3286 13.8659L34.1349 12.9989C34.0534 13.2222 33.9353 13.5291 33.8557 13.7361C33.8018 13.8765 33.7656 13.9709 33.7701 13.9623Z" fill="#15195A"/>
<path fill-rule="evenodd" clip-rule="evenodd" d="M11.1278 17.1415L13.8426 10.28H16.7738L12.4166 20.3315H9.48515L7.01438 11.5884C6.16189 11.1206 5.18898 10.7444 4.1012 10.4834L4.14682 10.2801H8.60686C9.2114 10.3012 9.70194 10.4832 9.86156 11.1259L10.8309 15.7492C10.8309 15.7494 10.831 15.7496 10.8311 15.7499L11.1278 17.1415Z" fill="#15195A"/>
</svg>
